<svg width="26" height="26" xmlns="http://www.w3.org/2000/svg">
 <g>
  <title>background</title>
  <rect x="-1" y="-1" width="28" height="28" id="canvas_background" fill="none"/>
 </g>

 <g>
  <title>Layer 1</title>
  <ellipse stroke-width="0" fill="#333333" stroke="#212121" stroke-opacity="null" cx="12.916667" cy="12.989583" id="svg_3" rx="12.33333" ry="12"/>
  <path fill="#ffffff" d="m13.000002,3.166669a10,10 0 0 0 -10,10a10,10 0 0 0 10,10a10,10 0 0 0 10,-10a10,10 0 0 0 -10,-10m0,2a8,8 0 0 1 8,8c0,2.4 -1,4.5 -2.7,6c-1.4,-1.3 -3.3,-2 -5.3,-2c-2,0 -3.8,0.7 -5.3,2c-1.7,-1.5 -2.7,-3.6 -2.7,-6a8,8 0 0 1 8,-8m2,1.89c-0.38,0.01 -0.74,0.26 -0.9,0.65l-1.29,3.23l-0.1,0.23c-0.71,0.13 -1.3,0.6 -1.57,1.26c-0.41,1.03 0.09,2.19 1.12,2.6c1.03,0.41 2.19,-0.09 2.6,-1.12c0.26,-0.66 0.14,-1.42 -0.29,-1.98l0.1,-0.26l1.29,-3.21l0.01,-0.03c0.2,-0.51 -0.05,-1.09 -0.56,-1.3c-0.13,-0.05 -0.26,-0.07 -0.41,-0.07m-4,0.11a1,1 0 0 0 -1,1a1,1 0 0 0 1,1a1,1 0 0 0 1,-1a1,1 0 0 0 -1,-1m-3,3a1,1 0 0 0 -1,1a1,1 0 0 0 1,1a1,1 0 0 0 1,-1a1,1 0 0 0 -1,-1m10,0a1,1 0 0 0 -1,1a1,1 0 0 0 1,1a1,1 0 0 0 1,-1a1,1 0 0 0 -1,-1z" id="svg_2"/>
 </g>
</svg>